<mxfile host="app.diagrams.net" modified="2023-11-22T08:14:35.442Z" agent="Mozilla/5.0 (Macintosh; Intel Mac OS X 10.15; rv:120.0) Gecko/20100101 Firefox/120.0" etag="nTbwYbwSXk3bLEBvPbT6" version="22.1.3" type="device">
  <diagram name="Page-1" id="kiRJ63zoVVt1ja7hi1Am">
    <mxGraphModel dx="1306" dy="751" grid="1" gridSize="10" guides="1" tooltips="1" connect="1" arrows="1" fold="1" page="1" pageScale="1" pageWidth="1654" pageHeight="2336" math="0" shadow="0">
      <root>
        <mxCell id="0" />
        <mxCell id="1" parent="0" />
        <mxCell id="_4aq-bRPm0SNTCXJp8df-1" value="" style="rounded=1;whiteSpace=wrap;html=1;fillColor=#fff2cc;strokeColor=#d6b656;" vertex="1" parent="1">
          <mxGeometry x="60" y="120" width="120" height="60" as="geometry" />
        </mxCell>
        <mxCell id="_4aq-bRPm0SNTCXJp8df-2" value="&lt;font style=&quot;font-size: 18px;&quot;&gt;User&lt;/font&gt;" style="rounded=1;whiteSpace=wrap;html=1;fillColor=#fff2cc;strokeColor=#d6b656;" vertex="1" parent="1">
          <mxGeometry x="60" y="480" width="120" height="60" as="geometry" />
        </mxCell>
        <mxCell id="_4aq-bRPm0SNTCXJp8df-3" value="&lt;font style=&quot;font-size: 18px;&quot;&gt;System&lt;/font&gt;" style="rounded=1;whiteSpace=wrap;html=1;fillColor=#e1d5e7;strokeColor=#9673a6;" vertex="1" parent="1">
          <mxGeometry x="400" y="120" width="120" height="60" as="geometry" />
        </mxCell>
        <mxCell id="_4aq-bRPm0SNTCXJp8df-4" value="&lt;font style=&quot;font-size: 18px;&quot;&gt;System&lt;/font&gt;" style="rounded=1;whiteSpace=wrap;html=1;fillColor=#e1d5e7;strokeColor=#9673a6;" vertex="1" parent="1">
          <mxGeometry x="400" y="480" width="120" height="60" as="geometry" />
        </mxCell>
        <mxCell id="_4aq-bRPm0SNTCXJp8df-5" value="&lt;font style=&quot;font-size: 18px;&quot;&gt;Airline_Database&lt;/font&gt;" style="rounded=1;whiteSpace=wrap;html=1;fillColor=#d5e8d4;strokeColor=#82b366;" vertex="1" parent="1">
          <mxGeometry x="720" y="120" width="200" height="60" as="geometry" />
        </mxCell>
        <mxCell id="_4aq-bRPm0SNTCXJp8df-6" value="&lt;font style=&quot;font-size: 18px;&quot;&gt;Airline_Database&lt;/font&gt;" style="rounded=1;whiteSpace=wrap;html=1;fillColor=#d5e8d4;strokeColor=#82b366;" vertex="1" parent="1">
          <mxGeometry x="720" y="480" width="200" height="60" as="geometry" />
        </mxCell>
        <mxCell id="_4aq-bRPm0SNTCXJp8df-7" value="" style="endArrow=none;dashed=1;html=1;rounded=0;entryX=0.5;entryY=1;entryDx=0;entryDy=0;exitX=0.5;exitY=0;exitDx=0;exitDy=0;" edge="1" parent="1" source="_4aq-bRPm0SNTCXJp8df-2" target="_4aq-bRPm0SNTCXJp8df-1">
          <mxGeometry width="50" height="50" relative="1" as="geometry">
            <mxPoint x="120" y="390" as="sourcePoint" />
            <mxPoint x="200" y="260" as="targetPoint" />
          </mxGeometry>
        </mxCell>
        <mxCell id="_4aq-bRPm0SNTCXJp8df-8" value="" style="endArrow=none;dashed=1;html=1;rounded=0;entryX=0.5;entryY=1;entryDx=0;entryDy=0;exitX=0.5;exitY=0;exitDx=0;exitDy=0;" edge="1" parent="1" source="_4aq-bRPm0SNTCXJp8df-4">
          <mxGeometry width="50" height="50" relative="1" as="geometry">
            <mxPoint x="459.5" y="400" as="sourcePoint" />
            <mxPoint x="459.5" y="180" as="targetPoint" />
          </mxGeometry>
        </mxCell>
        <mxCell id="_4aq-bRPm0SNTCXJp8df-9" value="" style="endArrow=none;dashed=1;html=1;rounded=0;entryX=0.5;entryY=1;entryDx=0;entryDy=0;exitX=0.5;exitY=0;exitDx=0;exitDy=0;" edge="1" parent="1" source="_4aq-bRPm0SNTCXJp8df-6">
          <mxGeometry width="50" height="50" relative="1" as="geometry">
            <mxPoint x="819.5" y="400" as="sourcePoint" />
            <mxPoint x="819.5" y="180" as="targetPoint" />
          </mxGeometry>
        </mxCell>
        <mxCell id="_4aq-bRPm0SNTCXJp8df-10" value="" style="endArrow=classic;html=1;rounded=0;" edge="1" parent="1">
          <mxGeometry width="50" height="50" relative="1" as="geometry">
            <mxPoint x="120" y="200" as="sourcePoint" />
            <mxPoint x="460" y="200" as="targetPoint" />
          </mxGeometry>
        </mxCell>
        <mxCell id="_4aq-bRPm0SNTCXJp8df-11" value="" style="endArrow=classic;html=1;rounded=0;" edge="1" parent="1">
          <mxGeometry width="50" height="50" relative="1" as="geometry">
            <mxPoint x="460" y="260" as="sourcePoint" />
            <mxPoint x="120" y="260" as="targetPoint" />
          </mxGeometry>
        </mxCell>
        <mxCell id="_4aq-bRPm0SNTCXJp8df-12" value="" style="endArrow=classic;html=1;rounded=0;" edge="1" parent="1">
          <mxGeometry width="50" height="50" relative="1" as="geometry">
            <mxPoint x="460" y="320" as="sourcePoint" />
            <mxPoint x="820" y="320" as="targetPoint" />
          </mxGeometry>
        </mxCell>
        <mxCell id="_4aq-bRPm0SNTCXJp8df-14" value="" style="endArrow=classic;html=1;rounded=0;" edge="1" parent="1">
          <mxGeometry width="50" height="50" relative="1" as="geometry">
            <mxPoint x="820" y="360" as="sourcePoint" />
            <mxPoint x="460" y="360" as="targetPoint" />
          </mxGeometry>
        </mxCell>
        <mxCell id="_4aq-bRPm0SNTCXJp8df-15" value="&lt;font style=&quot;font-size: 18px;&quot;&gt;User&lt;/font&gt;" style="text;html=1;strokeColor=none;fillColor=none;align=center;verticalAlign=middle;whiteSpace=wrap;rounded=0;" vertex="1" parent="1">
          <mxGeometry x="70" y="135" width="100" height="30" as="geometry" />
        </mxCell>
        <mxCell id="_4aq-bRPm0SNTCXJp8df-17" value="&lt;font style=&quot;font-size: 18px;&quot;&gt;Initiate Registration&lt;/font&gt;" style="text;whiteSpace=wrap;html=1;" vertex="1" parent="1">
          <mxGeometry x="210" y="170" width="170" height="50" as="geometry" />
        </mxCell>
        <mxCell id="_4aq-bRPm0SNTCXJp8df-18" value="&lt;font style=&quot;font-size: 18px;&quot;&gt;Request Details&lt;/font&gt;" style="text;whiteSpace=wrap;html=1;" vertex="1" parent="1">
          <mxGeometry x="220" y="230" width="170" height="50" as="geometry" />
        </mxCell>
        <mxCell id="_4aq-bRPm0SNTCXJp8df-19" value="" style="endArrow=classic;html=1;rounded=0;" edge="1" parent="1">
          <mxGeometry width="50" height="50" relative="1" as="geometry">
            <mxPoint x="120" y="320" as="sourcePoint" />
            <mxPoint x="460" y="320" as="targetPoint" />
          </mxGeometry>
        </mxCell>
        <mxCell id="_4aq-bRPm0SNTCXJp8df-20" value="&lt;font style=&quot;font-size: 18px;&quot;&gt;Submit Details&lt;/font&gt;" style="text;whiteSpace=wrap;html=1;" vertex="1" parent="1">
          <mxGeometry x="230" y="290" width="190" height="50" as="geometry" />
        </mxCell>
        <mxCell id="_4aq-bRPm0SNTCXJp8df-23" value="" style="endArrow=classic;html=1;rounded=0;" edge="1" parent="1">
          <mxGeometry width="50" height="50" relative="1" as="geometry">
            <mxPoint x="460" y="180" as="sourcePoint" />
            <mxPoint x="460" y="320" as="targetPoint" />
            <Array as="points">
              <mxPoint x="520" y="250" />
            </Array>
          </mxGeometry>
        </mxCell>
        <mxCell id="_4aq-bRPm0SNTCXJp8df-24" value="&lt;font style=&quot;font-size: 18px;&quot;&gt;Validate Information&lt;/font&gt;" style="text;whiteSpace=wrap;html=1;" vertex="1" parent="1">
          <mxGeometry x="520" y="230" width="170" height="50" as="geometry" />
        </mxCell>
        <mxCell id="_4aq-bRPm0SNTCXJp8df-25" value="&lt;font style=&quot;font-size: 18px;&quot;&gt;Create New User&lt;/font&gt;" style="text;whiteSpace=wrap;html=1;" vertex="1" parent="1">
          <mxGeometry x="600" y="290" width="170" height="50" as="geometry" />
        </mxCell>
        <mxCell id="_4aq-bRPm0SNTCXJp8df-28" value="&lt;font style=&quot;font-size: 18px;&quot;&gt;Confirm Profile Creation&lt;/font&gt;" style="text;whiteSpace=wrap;html=1;" vertex="1" parent="1">
          <mxGeometry x="585" y="330" width="200" height="50" as="geometry" />
        </mxCell>
        <mxCell id="_4aq-bRPm0SNTCXJp8df-29" value="" style="endArrow=classic;html=1;rounded=0;" edge="1" parent="1">
          <mxGeometry width="50" height="50" relative="1" as="geometry">
            <mxPoint x="460" y="380" as="sourcePoint" />
            <mxPoint x="120" y="380" as="targetPoint" />
          </mxGeometry>
        </mxCell>
        <mxCell id="_4aq-bRPm0SNTCXJp8df-30" value="&lt;font style=&quot;font-size: 18px;&quot;&gt;Registration Confirmation&lt;/font&gt;" style="text;whiteSpace=wrap;html=1;" vertex="1" parent="1">
          <mxGeometry x="180" y="350" width="210" height="50" as="geometry" />
        </mxCell>
        <mxCell id="_4aq-bRPm0SNTCXJp8df-31" value="&lt;font style=&quot;font-size: 18px;&quot;&gt;Email_Service&lt;/font&gt;" style="rounded=1;whiteSpace=wrap;html=1;fillColor=#f5f5f5;fontColor=#333333;strokeColor=#666666;" vertex="1" parent="1">
          <mxGeometry x="1000" y="120" width="200" height="60" as="geometry" />
        </mxCell>
        <mxCell id="_4aq-bRPm0SNTCXJp8df-32" value="&lt;font style=&quot;font-size: 18px;&quot;&gt;Email_Service&lt;/font&gt;" style="rounded=1;whiteSpace=wrap;html=1;fillColor=#f5f5f5;fontColor=#333333;strokeColor=#666666;" vertex="1" parent="1">
          <mxGeometry x="1000" y="480" width="200" height="60" as="geometry" />
        </mxCell>
        <mxCell id="_4aq-bRPm0SNTCXJp8df-33" value="" style="endArrow=classic;html=1;rounded=0;" edge="1" parent="1">
          <mxGeometry width="50" height="50" relative="1" as="geometry">
            <mxPoint x="460" y="420" as="sourcePoint" />
            <mxPoint x="1100" y="420" as="targetPoint" />
          </mxGeometry>
        </mxCell>
        <mxCell id="_4aq-bRPm0SNTCXJp8df-34" value="" style="endArrow=none;dashed=1;html=1;rounded=0;entryX=0.5;entryY=1;entryDx=0;entryDy=0;exitX=0.5;exitY=0;exitDx=0;exitDy=0;" edge="1" parent="1">
          <mxGeometry width="50" height="50" relative="1" as="geometry">
            <mxPoint x="1100" y="480" as="sourcePoint" />
            <mxPoint x="1099.5" y="180" as="targetPoint" />
          </mxGeometry>
        </mxCell>
        <mxCell id="_4aq-bRPm0SNTCXJp8df-35" value="" style="endArrow=classic;html=1;rounded=0;" edge="1" parent="1">
          <mxGeometry width="50" height="50" relative="1" as="geometry">
            <mxPoint x="1100" y="460" as="sourcePoint" />
            <mxPoint x="120" y="460" as="targetPoint" />
          </mxGeometry>
        </mxCell>
        <mxCell id="_4aq-bRPm0SNTCXJp8df-36" value="&lt;font style=&quot;font-size: 18px;&quot;&gt;Send Welcome Email&lt;/font&gt;" style="text;whiteSpace=wrap;html=1;" vertex="1" parent="1">
          <mxGeometry x="870" y="390" width="200" height="50" as="geometry" />
        </mxCell>
        <mxCell id="_4aq-bRPm0SNTCXJp8df-37" value="&lt;font style=&quot;font-size: 18px;&quot;&gt;Deliver Welcome Email&lt;/font&gt;" style="text;whiteSpace=wrap;html=1;" vertex="1" parent="1">
          <mxGeometry x="195" y="430" width="200" height="50" as="geometry" />
        </mxCell>
        <mxCell id="_4aq-bRPm0SNTCXJp8df-39" value="&lt;font style=&quot;font-size: 18px;&quot;&gt;&lt;b&gt;User Registration Sequence Diagram&lt;/b&gt;&lt;/font&gt;" style="text;html=1;strokeColor=none;fillColor=none;align=center;verticalAlign=middle;whiteSpace=wrap;rounded=0;" vertex="1" parent="1">
          <mxGeometry x="30" y="60" width="380" height="30" as="geometry" />
        </mxCell>
      </root>
    </mxGraphModel>
  </diagram>
</mxfile>
